<?xml version="1.0" encoding="utf-8"?>
<!-- Generator: Adobe Illustrator 21.1.0, SVG Export Plug-In . SVG Version: 6.00 Build 0)  -->
<svg version="1.1" id="Calque_1" xmlns="http://www.w3.org/2000/svg" xmlns:xlink="http://www.w3.org/1999/xlink" x="0px" y="0px"
	 viewBox="0 0 38 38" style="enable-background:new 0 0 38 38;" xml:space="preserve">
<style type="text/css">
	.st0{fill:#B1B3B5;}
</style>
<path class="st0" d="M14.4,12.6c0.9,0,1.5-0.6,1.5-1.5V9.6V8.1c0-0.9-0.8-1.5-1.5-1.5c-0.9,0-1.5,0.6-1.5,1.5v1.5v1.5
	C12.9,11.8,13.7,12.6,14.4,12.6 M23.6,12.6c0.9,0,1.5-0.6,1.5-1.5V9.6V8.1c0-0.9-0.8-1.5-1.5-1.5c-0.9,0-1.5,0.6-1.5,1.5v1.5v1.5
	C21.9,11.8,22.6,12.6,23.6,12.6 M29.3,11c0-0.8-0.6-1.3-1.5-1.3h-1.7v1.5c0,1.5-1.2,2.7-2.7,2.7c-1.5,0-2.7-1.2-2.7-2.7V9.6H17v1.5
	c0,1.5-1.2,2.7-2.7,2.7s-2.7-1.2-2.7-2.7V9.6h-1.5c-0.8,0-1.5,0.6-1.5,1.3v16.7c0,0.8,0.6,1.5,1.5,1.5h17.7c0.8,0,1.5-0.6,1.5-1.5
	V11H29.3z M38,19c0,10.5-8.5,19-19,19S0,29.5,0,19S8.5,0,19,0S38,8.5,38,19 M10.8,16.9h16.4v10.3H10.8V16.9z"/>
</svg>
